<svg id="svg" version="1.1" xmlns="http://www.w3.org/2000/svg" xmlns:xlink="http://www.w3.org/1999/xlink" width="400" height="400" viewBox="0, 0, 400,400"><g id="svgg"><path id="path0" d="M187.510 93.694 L 187.400 99.800 168.800 100.000 L 150.200 100.200 150.000 106.200 L 149.800 112.200 144.017 112.311 C 140.005 112.389,138.138 112.573,137.923 112.911 C 137.524 113.540,137.503 124.297,137.900 124.524 C 138.065 124.618,146.390 124.764,156.400 124.848 L 174.600 125.000 174.800 118.800 L 175.000 112.600 199.800 112.400 L 224.600 112.200 224.711 106.310 L 224.821 100.421 218.711 100.310 L 212.600 100.200 212.400 94.000 L 212.200 87.800 199.910 87.694 L 187.621 87.588 187.510 93.694 M187.867 125.467 C 187.720 125.613,187.600 128.313,187.600 131.467 L 187.600 137.200 212.400 137.200 L 237.200 137.200 237.200 131.200 L 237.200 125.200 212.667 125.200 C 199.173 125.200,188.013 125.320,187.867 125.467 M112.900 137.863 C 112.533 138.013,112.400 139.595,112.400 143.833 L 112.400 149.600 137.200 149.600 C 150.840 149.600,162.000 149.735,162.000 149.900 C 162.000 150.065,179.100 150.200,200.000 150.200 C 220.900 150.200,238.000 150.065,238.000 149.900 C 238.000 149.735,243.495 149.600,250.211 149.600 L 262.421 149.600 262.311 143.700 L 262.200 137.800 250.000 137.800 L 237.800 137.800 237.689 143.700 L 237.579 149.600 200.000 149.600 L 162.421 149.600 162.311 143.700 L 162.200 137.800 137.800 137.730 C 124.380 137.691,113.175 137.751,112.900 137.863 M137.383 162.900 C 137.278 163.175,137.238 171.680,137.296 181.800 L 137.400 200.200 143.490 200.310 L 149.579 200.421 149.690 206.510 L 149.800 212.600 174.555 212.703 C 192.507 212.778,199.460 212.682,199.855 212.354 C 200.268 212.011,200.400 210.523,200.400 206.200 L 200.400 200.498 212.700 200.149 C 222.838 199.861,223.928 199.781,218.900 199.690 L 212.800 199.579 212.800 181.200 L 212.800 162.821 218.600 162.694 L 224.401 162.567 218.500 162.583 L 212.600 162.600 212.496 181.290 L 212.392 199.979 206.296 200.090 L 200.200 200.200 200.000 206.200 L 199.800 212.200 175.000 212.200 L 150.200 212.200 150.000 206.200 L 149.800 200.200 143.800 200.000 L 137.800 199.800 137.800 181.100 C 137.800 170.815,137.749 162.400,137.687 162.400 C 137.626 162.400,137.489 162.625,137.383 162.900 M181.300 162.694 L 187.200 162.821 187.200 181.200 L 187.200 199.579 181.200 199.706 L 175.199 199.832 181.300 199.816 L 187.400 199.800 187.400 181.200 L 187.400 162.600 181.400 162.583 L 175.400 162.566 181.300 162.694 M237.761 168.400 C 237.761 171.810,237.822 173.205,237.897 171.500 C 237.972 169.795,237.972 167.005,237.897 165.300 C 237.822 163.595,237.761 164.990,237.761 168.400 M174.978 175.600 C 174.978 182.530,175.033 185.365,175.099 181.900 C 175.166 178.435,175.166 172.765,175.099 169.300 C 175.033 165.835,174.978 168.670,174.978 175.600 M224.984 181.200 C 224.984 191.210,225.036 195.305,225.100 190.300 C 225.163 185.295,225.163 177.105,225.100 172.100 C 225.036 167.095,224.984 171.190,224.984 181.200 M237.927 187.288 C 238.086 187.447,240.823 187.627,244.008 187.688 L 249.800 187.800 249.800 200.000 L 249.800 212.200 231.120 212.200 C 220.846 212.200,212.577 212.337,212.744 212.504 C 212.911 212.671,221.407 212.761,231.624 212.704 L 250.200 212.600 250.200 200.000 L 250.200 187.400 243.919 187.200 C 240.464 187.090,237.768 187.130,237.927 187.288 M175.067 225.067 C 174.698 225.436,174.729 237.109,175.100 237.339 C 175.265 237.441,175.346 234.749,175.280 231.357 L 175.161 225.188 187.480 225.294 L 199.800 225.400 199.911 231.169 C 199.995 235.502,199.895 237.029,199.511 237.300 C 199.123 237.574,199.144 237.622,199.600 237.498 C 200.225 237.328,200.717 227.759,200.208 225.700 L 199.985 224.800 187.659 224.800 C 180.880 224.800,175.213 224.920,175.067 225.067 M174.710 256.100 L 174.600 262.200 162.400 262.400 L 150.200 262.600 150.000 275.000 L 149.800 287.400 143.700 287.510 L 137.600 287.621 137.600 300.006 L 137.600 312.392 156.100 312.496 L 174.600 312.600 174.710 318.460 C 174.792 322.770,174.963 324.437,175.359 324.766 C 175.734 325.078,179.497 325.180,187.848 325.106 L 199.800 325.000 200.101 288.000 C 200.267 267.650,200.318 250.775,200.214 250.500 C 200.068 250.115,197.137 250.000,187.423 250.000 L 174.821 250.000 174.710 256.100 M212.268 250.265 C 211.831 250.702,212.458 324.135,212.904 324.700 C 213.478 325.429,224.133 325.404,224.740 324.673 C 224.999 324.360,225.222 321.796,225.289 318.373 L 225.400 312.600 243.800 312.400 L 262.200 312.200 262.200 300.000 L 262.200 287.800 256.000 287.600 L 249.800 287.400 249.694 275.111 L 249.588 262.821 243.694 262.711 L 237.800 262.600 237.690 256.300 L 237.580 250.000 225.057 250.000 C 218.169 250.000,212.414 250.119,212.268 250.265 M199.600 262.600 L 199.600 274.800 193.610 274.800 L 187.621 274.800 187.510 268.700 L 187.400 262.600 181.400 262.400 L 175.400 262.200 175.289 256.300 L 175.179 250.400 187.389 250.400 L 199.600 250.400 199.600 262.600 M237.200 256.400 L 237.200 262.400 231.243 262.400 C 224.168 262.400,224.800 261.730,224.800 269.233 L 224.800 274.800 218.800 274.800 L 212.800 274.800 212.800 262.600 L 212.800 250.400 225.000 250.400 L 237.200 250.400 237.200 256.400 M112.267 275.067 C 112.120 275.213,112.000 277.999,112.000 281.256 L 112.000 287.179 105.900 287.290 L 99.800 287.400 99.800 306.200 L 99.800 325.000 106.063 325.200 C 109.507 325.310,112.242 325.265,112.139 325.100 C 112.037 324.935,109.263 324.800,105.976 324.800 L 100.000 324.800 100.000 306.210 L 100.000 287.621 106.100 287.510 L 112.200 287.400 112.400 281.099 C 112.510 277.634,112.585 274.799,112.567 274.799 C 112.548 274.800,112.413 274.920,112.267 275.067 M118.800 287.584 L 112.600 287.800 112.494 299.774 C 112.436 306.360,112.526 311.886,112.694 312.054 C 112.862 312.223,112.950 306.880,112.889 300.180 L 112.777 288.000 118.765 288.000 C 122.325 288.000,124.853 287.838,125.000 287.600 C 125.136 287.380,125.192 287.238,125.124 287.284 C 125.056 287.330,122.210 287.465,118.800 287.584 M124.720 318.367 C 124.803 322.495,124.992 324.461,125.335 324.746 C 125.895 325.211,137.602 325.559,137.601 325.110 C 137.600 324.951,134.855 324.771,131.500 324.710 L 125.400 324.600 125.290 318.500 C 125.229 315.145,125.049 312.400,124.890 312.399 C 124.730 312.399,124.654 315.084,124.720 318.367 M162.667 337.490 C 162.561 337.660,165.243 337.746,168.627 337.681 L 174.779 337.561 174.889 343.681 L 175.000 349.800 187.400 350.000 L 199.800 350.200 199.800 362.400 L 199.800 374.600 181.138 374.600 C 170.874 374.600,162.560 374.735,162.662 374.900 C 163.079 375.575,199.896 375.248,200.157 374.567 C 200.648 373.289,200.428 350.588,199.920 350.080 C 199.568 349.728,196.216 349.600,187.330 349.600 L 175.221 349.600 175.110 343.500 L 175.000 337.400 168.930 337.290 C 165.591 337.229,162.773 337.319,162.667 337.490 M212.667 349.890 C 212.561 350.060,215.248 350.146,218.637 350.080 L 224.800 349.961 224.800 362.400 L 224.800 374.839 218.599 374.720 C 215.189 374.654,212.399 374.740,212.399 374.910 C 212.400 375.081,215.235 375.171,218.700 375.110 L 225.000 375.000 225.000 362.400 L 225.000 349.800 218.930 349.690 C 215.591 349.629,212.773 349.719,212.667 349.890 M212.159 356.400 C 212.159 359.590,212.221 360.895,212.297 359.300 C 212.373 357.705,212.373 355.095,212.297 353.500 C 212.221 351.905,212.159 353.210,212.159 356.400 " stroke="none" fill="#743c3c" fill-rule="evenodd"></path><path id="path1" d="M174.647 162.623 C 174.511 162.976,174.400 165.861,174.400 169.033 L 174.400 174.800 168.600 174.800 L 162.800 174.800 162.800 168.700 L 162.800 162.600 150.400 162.711 L 138.000 162.822 138.000 181.201 L 138.000 199.579 144.100 199.690 L 150.200 199.800 150.310 205.900 L 150.421 212.000 175.010 212.000 L 199.600 212.000 199.600 206.033 C 199.600 202.356,199.756 200.016,200.006 199.933 C 200.229 199.860,197.619 199.858,194.206 199.928 L 188.000 200.056 188.000 193.828 L 188.000 187.600 199.990 187.600 L 211.979 187.600 212.131 193.500 C 212.214 196.745,212.218 195.326,212.139 190.348 C 212.060 185.369,212.115 177.039,212.262 171.838 L 212.528 162.380 218.764 162.490 L 225.000 162.600 225.299 171.852 C 225.463 176.941,225.463 185.401,225.299 190.652 L 225.000 200.200 218.900 200.310 L 212.800 200.421 212.800 206.210 L 212.800 212.000 231.200 212.000 L 249.600 212.000 249.600 200.010 L 249.600 188.021 243.500 187.910 L 237.400 187.800 237.291 181.200 L 237.183 174.600 231.391 174.721 L 225.600 174.841 225.594 168.921 C 225.586 161.340,226.220 161.957,218.570 162.089 L 212.200 162.200 212.090 168.500 L 211.980 174.800 200.000 174.800 L 188.020 174.800 187.910 168.500 L 187.800 162.200 181.347 162.090 C 175.725 161.995,174.861 162.063,174.647 162.623 M187.736 171.752 C 187.881 176.895,187.880 185.450,187.735 190.762 L 187.472 200.420 181.236 200.310 L 175.000 200.200 174.722 192.400 C 174.456 184.938,174.712 163.327,175.074 162.700 C 175.169 162.535,177.998 162.400,181.360 162.400 L 187.472 162.400 187.736 171.752 M174.400 193.806 L 174.400 200.012 162.300 199.906 L 150.200 199.800 150.088 194.219 C 150.027 191.150,150.066 188.405,150.176 188.119 C 150.333 187.710,152.909 187.600,162.387 187.600 L 174.400 187.600 174.400 193.806 M237.000 193.800 L 237.000 199.800 231.300 199.911 L 225.600 200.022 225.600 193.800 L 225.600 187.578 231.300 187.689 L 237.000 187.800 237.000 193.800 M175.600 231.400 L 175.600 237.200 187.600 237.200 L 199.600 237.200 199.600 231.400 L 199.600 225.600 187.600 225.600 L 175.600 225.600 175.600 231.400 M112.559 281.200 C 112.559 284.390,112.621 285.695,112.697 284.100 C 112.773 282.505,112.773 279.895,112.697 278.300 C 112.621 276.705,112.559 278.010,112.559 281.200 M115.900 287.497 C 117.495 287.573,120.105 287.573,121.700 287.497 C 123.295 287.421,121.990 287.359,118.800 287.359 C 115.610 287.359,114.305 287.421,115.900 287.497 M106.100 312.711 L 100.400 312.821 100.400 318.611 L 100.400 324.400 106.100 324.406 C 113.332 324.414,112.756 323.852,112.889 331.017 L 113.000 337.000 125.000 337.000 L 137.000 337.000 137.111 331.300 L 137.222 325.600 131.440 325.600 C 123.969 325.600,124.400 326.029,124.400 318.591 L 124.400 312.839 118.100 312.720 C 114.635 312.654,109.235 312.650,106.100 312.711 M162.800 356.200 L 162.800 374.400 181.200 374.400 L 199.600 374.400 199.600 362.400 L 199.600 350.400 193.400 350.400 L 187.200 350.400 187.200 356.400 L 187.200 362.400 181.200 362.400 L 175.200 362.400 175.200 356.224 C 175.200 352.537,175.039 349.948,174.800 349.800 C 174.563 349.654,174.400 347.196,174.400 343.776 L 174.400 338.000 168.600 338.000 L 162.800 338.000 162.800 356.200 M224.400 356.354 L 224.400 362.441 218.599 362.321 L 212.799 362.200 212.799 368.300 L 212.800 374.400 218.554 374.400 L 224.308 374.400 224.604 362.583 C 224.766 356.084,224.787 350.654,224.650 350.516 C 224.512 350.379,224.400 353.006,224.400 356.354 " stroke="none" fill="#e4a474" fill-rule="evenodd"></path><path id="path2" d="M162.669 150.265 C 162.521 150.412,162.400 153.201,162.400 156.461 L 162.400 162.388 150.100 162.494 L 137.800 162.600 137.800 181.200 L 137.800 199.800 143.800 200.000 L 149.800 200.200 150.000 206.200 L 150.200 212.200 175.000 212.200 L 199.800 212.200 200.000 206.200 L 200.200 200.200 206.400 199.984 L 212.600 199.768 206.733 199.684 C 198.897 199.572,199.600 198.945,199.600 206.043 L 199.600 212.000 175.010 212.000 L 150.421 212.000 150.310 205.900 L 150.200 199.800 144.100 199.690 L 138.000 199.579 138.000 181.195 L 138.000 162.812 150.300 162.706 L 162.600 162.600 162.710 156.500 L 162.821 150.400 200.006 150.400 L 237.192 150.400 237.296 169.100 L 237.400 187.800 243.500 187.910 L 249.600 188.021 249.600 200.010 L 249.600 212.000 231.200 212.000 L 212.800 212.000 212.800 206.210 L 212.800 200.421 218.867 200.310 C 223.856 200.220,224.963 200.093,225.098 199.600 C 225.215 199.167,225.164 199.136,224.914 199.489 C 224.673 199.828,222.730 200.012,218.583 200.089 L 212.600 200.200 212.600 206.200 L 212.600 212.200 231.200 212.200 L 249.800 212.200 249.800 200.000 L 249.800 187.800 243.800 187.600 L 237.800 187.400 237.600 168.800 L 237.400 150.200 200.169 150.098 C 179.692 150.042,162.817 150.117,162.669 150.265 M187.763 181.200 C 187.763 184.830,187.823 186.315,187.898 184.500 C 187.972 182.685,187.972 179.715,187.898 177.900 C 187.823 176.085,187.763 177.570,187.763 181.200 M212.163 181.200 C 212.163 184.830,212.223 186.315,212.298 184.500 C 212.372 182.685,212.372 179.715,212.298 177.900 C 212.223 176.085,212.163 177.570,212.163 181.200 M174.561 181.200 C 174.561 184.610,174.622 186.005,174.697 184.300 C 174.772 182.595,174.772 179.805,174.697 178.100 C 174.622 176.395,174.561 177.790,174.561 181.200 M225.361 181.200 C 225.361 184.610,225.422 186.005,225.497 184.300 C 225.572 182.595,225.572 179.805,225.497 178.100 C 225.422 176.395,225.361 177.790,225.361 181.200 M174.984 194.100 L 175.000 200.200 181.300 200.310 C 184.765 200.371,187.600 200.281,187.601 200.110 C 187.601 199.940,184.816 199.854,181.411 199.919 L 175.221 200.039 175.094 194.019 L 174.968 187.999 174.984 194.100 M175.290 231.294 L 175.400 237.400 187.200 237.409 L 199.000 237.418 187.300 237.303 L 175.600 237.188 175.600 231.394 L 175.600 225.600 187.589 225.600 L 199.579 225.600 199.705 231.300 L 199.832 237.000 199.816 231.200 L 199.800 225.400 187.490 225.294 L 175.179 225.188 175.290 231.294 M175.289 256.300 L 175.400 262.200 181.400 262.400 L 187.400 262.600 187.510 268.700 L 187.621 274.800 193.610 274.800 L 199.600 274.800 199.600 262.600 L 199.600 250.400 187.389 250.400 L 175.179 250.400 175.289 256.300 M212.800 262.600 L 212.800 274.800 218.800 274.800 L 224.800 274.800 224.800 269.233 C 224.800 261.730,224.168 262.400,231.243 262.400 L 237.200 262.400 237.200 256.400 L 237.200 250.400 225.000 250.400 L 212.800 250.400 212.800 262.600 M112.661 275.100 C 112.558 275.265,114.302 275.352,116.537 275.294 C 123.890 275.103,124.691 274.949,118.724 274.874 C 115.492 274.833,112.763 274.935,112.661 275.100 M124.799 281.481 C 124.689 284.826,124.740 287.422,124.911 287.250 C 125.083 287.078,125.172 284.341,125.110 281.169 L 124.997 275.400 124.799 281.481 M112.399 312.500 C 112.400 312.665,115.100 312.800,118.400 312.800 L 124.400 312.800 124.400 318.571 C 124.400 326.032,123.967 325.600,131.440 325.600 L 137.222 325.600 137.111 331.300 L 137.000 337.000 125.000 337.000 L 113.000 337.000 112.889 331.017 C 112.756 323.853,113.331 324.414,106.110 324.406 L 100.421 324.400 100.299 318.300 L 100.178 312.200 100.089 318.490 L 100.000 324.779 106.100 324.890 L 112.200 325.000 112.311 330.773 C 112.457 338.330,111.101 337.600,125.000 337.600 C 138.984 337.600,137.660 338.304,137.512 330.945 L 137.400 325.400 131.627 325.289 C 124.364 325.148,124.846 325.624,124.710 318.460 L 124.600 312.600 118.499 312.400 C 115.144 312.290,112.399 312.335,112.399 312.500 M162.583 338.100 C 162.478 338.375,162.438 346.700,162.496 356.600 L 162.600 374.600 181.200 374.600 L 199.800 374.600 199.800 362.400 L 199.800 350.200 187.400 350.000 L 175.000 349.800 174.890 343.700 L 174.779 337.600 168.777 337.600 C 164.344 337.600,162.725 337.731,162.583 338.100 M174.400 343.720 C 174.400 347.636,174.551 349.591,174.880 349.920 C 175.232 350.272,178.587 350.400,187.480 350.400 L 199.600 350.400 199.600 362.400 L 199.600 374.400 181.200 374.400 L 162.800 374.400 162.800 356.200 L 162.800 338.000 168.600 338.000 L 174.400 338.000 174.400 343.720 M212.581 350.505 C 212.475 350.782,212.435 356.317,212.494 362.805 L 212.600 374.600 218.700 374.710 L 224.800 374.821 224.712 368.710 L 224.623 362.600 224.501 368.500 L 224.379 374.400 218.589 374.400 L 212.800 374.400 212.800 362.410 L 212.800 350.421 218.900 350.299 L 225.000 350.178 218.887 350.089 C 214.270 350.022,212.728 350.123,212.581 350.505 " stroke="none" fill="#bc6c54" fill-rule="evenodd"></path><path id="path3" d="M163.069 150.665 C 162.921 150.812,162.800 156.303,162.800 162.867 L 162.800 174.800 168.600 174.800 L 174.400 174.800 174.406 168.900 C 174.414 161.343,173.781 161.957,181.430 162.089 L 187.800 162.200 187.910 168.500 L 188.020 174.800 200.000 174.800 L 211.980 174.800 212.090 168.500 L 212.200 162.200 218.570 162.089 C 226.219 161.957,225.586 161.342,225.594 168.911 L 225.600 174.822 231.300 174.711 L 237.000 174.600 237.000 162.600 L 237.000 150.600 200.169 150.498 C 179.912 150.442,163.217 150.517,163.069 150.665 M150.176 188.119 C 150.066 188.405,150.027 191.150,150.088 194.219 L 150.200 199.800 162.300 199.906 L 174.400 200.012 174.400 193.806 L 174.400 187.600 162.387 187.600 C 152.909 187.600,150.333 187.710,150.176 188.119 M188.000 193.864 L 188.000 200.127 196.700 199.865 C 201.485 199.720,206.885 199.602,208.700 199.601 L 212.000 199.600 212.000 193.600 L 212.000 187.600 200.000 187.600 L 188.000 187.600 188.000 193.864 M225.600 193.800 L 225.600 200.022 231.300 199.911 L 237.000 199.800 237.000 193.800 L 237.000 187.800 231.300 187.689 L 225.600 187.578 225.600 193.800 M112.800 281.200 L 112.800 287.200 118.800 287.200 L 124.800 287.200 124.800 281.200 L 124.800 275.200 118.800 275.200 L 112.800 275.200 112.800 281.200 M100.277 287.856 C 99.885 288.248,99.943 311.691,100.337 312.311 C 100.581 312.697,102.083 312.795,106.431 312.711 L 112.200 312.600 112.200 300.200 L 112.200 287.800 106.377 287.690 C 103.174 287.629,100.429 287.704,100.277 287.856 M175.200 356.400 L 175.200 362.400 181.200 362.400 L 187.200 362.400 187.200 356.400 L 187.200 350.400 181.200 350.400 L 175.200 350.400 175.200 356.400 M212.975 350.920 C 212.865 351.206,212.826 353.861,212.888 356.820 L 213.000 362.200 218.700 362.311 L 224.400 362.422 224.400 356.411 L 224.400 350.400 218.787 350.400 C 214.550 350.400,213.126 350.527,212.975 350.920 " stroke="none" fill="#eedab8" fill-rule="evenodd"></path><path id="path4" d="M149.200 68.200 L 149.200 74.400 143.000 74.400 L 136.800 74.400 136.800 80.600 L 136.800 86.800 130.600 86.800 L 124.400 86.800 124.400 105.600 L 124.400 124.400 111.800 124.400 L 99.200 124.400 99.200 130.600 L 99.200 136.800 86.800 136.800 L 74.400 136.800 74.400 150.000 L 74.400 163.200 99.400 163.200 L 124.400 163.200 124.400 182.000 L 124.400 200.800 130.600 200.800 L 136.800 200.800 136.800 207.000 L 136.800 213.200 143.000 213.200 L 149.200 213.200 149.200 219.400 L 149.200 225.600 155.600 225.600 L 162.000 225.600 162.000 231.200 L 162.000 236.800 155.600 236.800 L 149.200 236.800 149.200 243.000 L 149.200 249.200 143.000 249.200 L 136.800 249.200 136.800 255.600 L 136.800 262.000 124.400 262.000 L 112.000 262.000 112.000 268.200 L 112.000 274.400 105.600 274.400 L 99.200 274.400 99.200 280.600 L 99.200 286.800 93.000 286.800 L 86.800 286.800 86.800 306.200 L 86.800 325.600 93.000 325.600 L 99.200 325.600 99.200 331.800 L 99.200 338.000 105.600 338.000 L 112.000 338.000 112.000 344.400 L 112.000 350.800 130.600 350.800 L 149.200 350.800 149.200 362.600 L 149.200 374.400 143.000 374.400 L 136.800 374.400 136.800 381.200 L 136.800 388.000 193.800 388.000 L 250.800 388.000 250.800 381.200 L 250.800 374.400 244.400 374.400 L 238.000 374.400 238.000 356.200 L 238.000 338.000 244.400 338.000 L 250.800 338.000 250.800 331.800 L 250.800 325.600 257.000 325.600 L 263.200 325.600 263.200 319.400 L 263.200 313.200 269.400 313.200 L 275.600 313.200 275.600 300.000 L 275.600 286.800 269.400 286.800 L 263.200 286.800 263.200 274.400 L 263.200 262.000 257.010 262.000 L 250.820 262.000 250.710 255.700 L 250.600 249.400 244.300 249.290 L 238.000 249.180 238.000 242.990 L 238.000 236.800 225.600 236.800 L 213.200 236.800 213.200 231.200 L 213.200 225.600 232.000 225.600 L 250.800 225.600 250.800 219.400 L 250.800 213.200 257.000 213.200 L 263.200 213.200 263.200 200.000 L 263.200 186.800 257.000 186.800 L 250.800 186.800 250.800 175.000 L 250.800 163.200 269.400 163.200 L 288.000 163.200 288.000 150.000 L 288.000 136.800 281.800 136.800 L 275.600 136.800 275.600 130.600 L 275.600 124.400 256.800 124.400 L 238.000 124.400 238.000 111.800 L 238.000 99.200 231.800 99.200 L 225.600 99.200 225.600 80.600 L 225.600 62.000 206.200 62.000 L 186.800 62.000 186.800 68.200 L 186.800 74.400 181.200 74.400 L 175.600 74.400 175.600 68.200 L 175.600 62.000 162.400 62.000 L 149.200 62.000 149.200 68.200 M212.400 94.000 L 212.600 100.200 218.711 100.310 L 224.821 100.421 224.711 106.310 L 224.600 112.200 199.800 112.400 L 175.000 112.600 174.800 118.800 L 174.600 125.000 156.400 124.848 C 146.390 124.764,138.065 124.618,137.900 124.524 C 137.503 124.297,137.524 113.540,137.923 112.911 C 138.138 112.573,140.005 112.389,144.017 112.311 L 149.800 112.200 150.000 106.200 L 150.200 100.200 168.800 100.000 L 187.400 99.800 187.510 93.694 L 187.621 87.588 199.910 87.694 L 212.200 87.800 212.400 94.000 M237.200 131.200 L 237.200 137.200 212.400 137.200 L 187.600 137.200 187.600 131.467 C 187.600 128.313,187.720 125.613,187.867 125.467 C 188.013 125.320,199.173 125.200,212.667 125.200 L 237.200 125.200 237.200 131.200 M162.311 143.700 L 162.421 149.600 200.000 149.600 L 237.579 149.600 237.689 143.700 L 237.800 137.800 250.000 137.800 L 262.200 137.800 262.311 143.700 L 262.421 149.600 250.238 149.600 C 238.972 149.600,238.040 149.653,237.867 150.300 C 237.763 150.685,237.706 159.100,237.740 169.000 L 237.800 187.000 244.000 187.200 L 250.200 187.400 250.200 200.000 L 250.200 212.600 231.400 212.600 L 212.600 212.600 212.490 206.500 L 212.379 200.400 206.390 200.400 L 200.400 200.400 200.400 206.151 C 200.400 210.515,200.269 212.011,199.855 212.354 C 199.460 212.682,192.507 212.778,174.555 212.703 L 149.800 212.600 149.690 206.510 L 149.579 200.421 143.490 200.310 L 137.400 200.200 137.400 181.400 L 137.400 162.600 149.800 162.400 L 162.200 162.200 162.315 156.800 C 162.379 153.830,162.330 150.995,162.208 150.500 L 161.985 149.600 137.192 149.600 L 112.400 149.600 112.400 143.833 C 112.400 139.595,112.533 138.013,112.900 137.863 C 113.175 137.751,124.380 137.691,137.800 137.730 L 162.200 137.800 162.311 143.700 M175.200 181.200 L 175.200 199.600 181.200 199.600 L 187.200 199.600 187.200 181.200 L 187.200 162.800 181.200 162.800 L 175.200 162.800 175.200 181.200 M212.800 181.200 L 212.800 199.600 218.800 199.600 L 224.800 199.600 224.800 181.200 L 224.800 162.800 218.800 162.800 L 212.800 162.800 212.800 181.200 M200.208 225.700 C 200.330 226.195,200.379 229.030,200.315 232.000 L 200.200 237.400 187.600 237.400 L 175.000 237.400 174.889 231.618 C 174.827 228.439,174.867 225.604,174.976 225.318 C 175.133 224.909,177.790 224.800,187.580 224.800 L 199.985 224.800 200.208 225.700 M200.214 250.500 C 200.318 250.775,200.267 267.650,200.101 288.000 L 199.800 325.000 187.848 325.106 C 179.497 325.180,175.734 325.078,175.359 324.766 C 174.963 324.437,174.792 322.770,174.710 318.460 L 174.600 312.600 156.100 312.496 L 137.600 312.392 137.600 300.006 L 137.600 287.621 143.700 287.510 L 149.800 287.400 150.000 275.000 L 150.200 262.600 162.400 262.400 L 174.600 262.200 174.710 256.100 L 174.821 250.000 187.423 250.000 C 197.137 250.000,200.068 250.115,200.214 250.500 M237.690 256.300 L 237.800 262.600 243.694 262.711 L 249.588 262.821 249.694 275.111 L 249.800 287.400 256.000 287.600 L 262.200 287.800 262.200 300.000 L 262.200 312.200 243.800 312.400 L 225.400 312.600 225.289 318.373 C 225.222 321.796,224.999 324.360,224.740 324.673 C 224.133 325.404,213.478 325.429,212.904 324.700 C 212.458 324.135,211.831 250.702,212.268 250.265 C 212.414 250.119,218.169 250.000,225.057 250.000 L 237.580 250.000 237.690 256.300 M125.110 281.300 L 125.000 287.800 118.894 287.910 L 112.788 288.021 112.894 300.110 L 113.000 312.200 119.090 312.310 L 125.179 312.421 125.290 318.510 L 125.400 324.600 131.500 324.710 L 137.600 324.821 137.600 331.210 L 137.600 337.600 125.010 337.600 L 112.421 337.600 112.310 331.500 L 112.200 325.400 106.000 325.200 L 99.800 325.000 99.800 306.200 L 99.800 287.400 105.900 287.290 L 112.000 287.179 112.000 281.256 C 112.000 277.999,112.120 275.213,112.267 275.067 C 112.413 274.920,115.388 274.800,118.877 274.800 L 125.220 274.800 125.110 281.300 M175.110 343.500 L 175.221 349.600 187.330 349.600 C 196.216 349.600,199.568 349.728,199.920 350.080 C 200.476 350.636,200.615 373.842,200.068 374.704 C 199.816 375.100,195.768 375.186,181.174 375.104 L 162.600 375.000 162.496 356.600 C 162.438 346.480,162.480 337.970,162.587 337.690 C 162.737 337.300,164.225 337.205,168.891 337.290 L 175.000 337.400 175.110 343.500 M225.000 362.400 L 225.000 375.000 218.756 375.110 L 212.513 375.220 212.221 363.249 C 211.853 348.135,211.154 349.549,218.920 349.690 L 225.000 349.800 225.000 362.400 " stroke="none" fill="#3c2434" fill-rule="evenodd"></path></g></svg>